#N canvas 2518 1053 1270 977 12;
#X obj 18 49 oscparse;
#X obj 20 179 list length;
#X obj 18 83 list trim;
#X obj 25 145 array set pointsx;
#X obj 19 116 route pointsx pointsy, f 36;
#X obj 153 146 array set pointsy;
#X obj 21 354 array size pointsx;
#X obj 21 209 change;
#X obj 21 385 array define -yrange -1 1 -k pointsx 256;
#A 0 -0.810547 0.314453 0.912109 -0.144531 -0.810547 -0.804688 -0.173828
0.849609 0.90625 -0.126953 -0.177734 -0.810547;
#X obj 21 410 array define -yrange -1 1 -k pointsy 256;
#A 0 -0.830078 -0.832031 -0.503906 -0.482422 -0.820312 0.435547 0.773438
0.775391 -0.503906 -0.480469 0.761719 -0.830078;
#X obj 173 353 array size pointsy;
#X obj 346 285 dac~, f 9;
#X obj 21 240 s npoints;
#X obj 346 135 r npoints;
#X obj 20 324 r npoints;
#X obj 170 328 r npoints;
#X obj 330 162 *~;
#X obj 476 165 *~;
#X obj 493 137 r npoints;
#X obj 17 17 netreceive -u -b 12000;
#X obj 331 201 tabreadlin pointsx;
#X obj 477 207 tabreadlin pointsy;
#X floatatom 334 16 5 0 0 0 - - - 0;
#X obj 335 53 phasor~ 60;
#X connect 0 0 2 0;
#X connect 1 0 7 0;
#X connect 2 0 4 0;
#X connect 4 0 1 0;
#X connect 4 0 3 0;
#X connect 4 1 5 0;
#X connect 7 0 12 0;
#X connect 13 0 16 1;
#X connect 14 0 6 0;
#X connect 15 0 10 0;
#X connect 16 0 20 0;
#X connect 17 0 21 0;
#X connect 18 0 17 1;
#X connect 19 0 0 0;
#X connect 20 0 11 0;
#X connect 21 0 11 1;
#X connect 22 0 23 0;
#X connect 23 0 16 0;
#X connect 23 0 17 0;
#X coords 0 488.5 0.5 488 85 60 0;
